<?xml version="1.0" standalone="no"?>
<!DOCTYPE svg PUBLIC "-//W3C//DTD SVG 20010904//EN"
 "http://www.w3.org/TR/2001/REC-SVG-20010904/DTD/svg10.dtd">
<svg version="1.0" xmlns="http://www.w3.org/2000/svg"
 width="592.000000pt" height="592.000000pt" viewBox="0 0 592.000000 592.000000"
 preserveAspectRatio="xMidYMid meet">
<metadata>
Created by potrace 1.14, written by Peter Selinger 2001-2017
</metadata>
<g transform="translate(0.000000,592.000000) scale(0.100000,-0.100000)"
fill="#000000" stroke="none">
<path d="M2730 5620 c-91 -3 -170 -9 -175 -12 -6 -3 -36 -9 -68 -12 -143 -17
-455 -98 -582 -151 -16 -7 -55 -23 -85 -35 -30 -12 -83 -36 -118 -51 -34 -16
-64 -29 -66 -29 -3 0 -61 -32 -201 -110 -27 -16 -84 -52 -125 -80 -41 -28
-108 -74 -149 -101 -41 -27 -81 -59 -88 -69 -8 -11 -18 -20 -23 -20 -5 0 -40
-30 -77 -67 -64 -62 -71 -66 -115 -67 -27 -1 -48 -4 -48 -8 0 -5 5 -8 10 -8
12 0 13 -50 1 -68 -4 -8 -12 -13 -17 -12 -5 0 -10 -8 -12 -20 -2 -11 -7 -18
-11 -15 -5 2 -21 -9 -37 -27 -16 -17 -41 -42 -57 -56 -15 -15 -27 -32 -27 -39
0 -6 -5 -15 -12 -19 -7 -4 -8 -3 -4 4 5 8 2 10 -8 6 -9 -3 -16 -10 -16 -14 0
-5 -13 -24 -30 -42 -16 -18 -30 -38 -30 -45 0 -7 -4 -13 -10 -13 -5 0 -17 -15
-26 -32 -9 -18 -20 -35 -24 -38 -4 -3 -10 -18 -14 -35 -7 -29 -7 -29 22 10 16
22 34 51 41 63 7 12 16 20 20 17 5 -2 16 6 25 19 12 19 12 26 3 30 -6 3 -2 3
11 0 15 -4 22 -1 22 9 0 15 74 97 87 97 10 0 38 42 35 53 -1 4 4 7 10 7 7 0
29 16 48 35 40 41 75 48 65 13 -4 -13 -13 -28 -21 -34 -8 -6 -14 -16 -14 -22
0 -6 -6 -15 -13 -19 -8 -4 -22 -23 -32 -40 -11 -18 -22 -33 -25 -33 -3 0 -14
-16 -24 -35 -11 -19 -23 -35 -28 -35 -4 0 -8 -7 -8 -15 0 -8 -9 -23 -20 -32
-11 -10 -20 -21 -20 -25 0 -5 -8 -17 -17 -27 -20 -21 -102 -113 -158 -178 -25
-29 -42 -40 -53 -36 -14 5 -15 3 -5 -7 9 -10 9 -19 -3 -41 -8 -16 -10 -29 -5
-29 5 0 11 7 15 15 9 24 43 18 66 -12 29 -37 15 -46 -69 -45 -39 0 -74 -4 -77
-9 -3 -5 4 -9 15 -9 39 0 101 -31 101 -51 0 -10 -13 -52 -29 -93 -40 -100
-102 -296 -105 -331 -1 -5 -22 -11 -48 -13 -27 -2 -48 -6 -48 -10 1 -4 19 -19
40 -34 35 -24 39 -31 31 -50 -6 -13 -17 -84 -26 -158 -9 -74 -19 -151 -23
-170 -8 -37 -18 -41 -77 -26 -28 6 -26 3 24 -42 49 -44 54 -51 48 -80 -9 -44
9 -326 29 -447 8 -55 17 -111 18 -125 2 -14 7 -36 11 -50 5 -14 9 -29 10 -35
6 -69 112 -390 160 -485 7 -14 34 -68 59 -120 51 -105 84 -164 127 -228 16
-24 29 -46 29 -49 0 -3 18 -30 40 -59 22 -29 40 -57 40 -63 0 -5 3 -11 8 -13
4 -1 27 -28 52 -58 129 -158 287 -320 405 -414 39 -30 79 -63 90 -73 10 -10
33 -26 50 -37 16 -10 34 -25 38 -32 4 -8 14 -14 21 -14 8 0 19 -7 26 -16 8 -8
30 -22 49 -31 61 -27 12 -26 -89 2 -139 39 -182 51 -213 64 -37 14 -79 15 -57
1 8 -5 23 -10 32 -10 10 0 46 -13 80 -30 34 -16 67 -30 75 -30 7 0 13 -4 13
-9 0 -5 20 -17 45 -27 25 -9 57 -28 71 -41 20 -18 29 -21 39 -13 9 8 15 8 20
0 3 -5 1 -10 -4 -10 -6 0 -11 -4 -11 -9 0 -5 6 -9 13 -8 41 1 59 -5 64 -21 4
-15 58 -45 85 -47 4 0 17 -8 28 -18 11 -9 30 -17 43 -17 12 0 28 -9 35 -20 7
-11 20 -20 30 -20 9 0 26 -7 36 -15 11 -8 32 -15 47 -15 15 0 31 -5 35 -12 5
-7 2 -9 -9 -5 -10 4 -18 -1 -22 -14 -4 -10 -15 -19 -26 -19 -10 0 -19 -4 -19
-10 0 -15 17 -12 46 6 17 11 55 18 118 22 99 5 164 -5 256 -41 63 -24 189
-103 197 -123 3 -8 9 -11 14 -8 5 3 4 14 -2 26 -10 19 -9 20 12 13 13 -4 50
-10 82 -12 31 -3 57 -9 57 -15 0 -7 28 -8 80 -3 56 5 80 4 80 -4 0 -7 30 -11
88 -11 91 0 405 18 457 26 17 2 62 7 100 11 43 3 88 15 117 29 28 14 67 24 95
25 26 1 66 6 88 11 22 6 49 12 60 14 11 2 34 6 50 9 17 3 56 11 88 17 96 18
64 28 -70 22 -71 -3 -141 -1 -158 4 -30 8 -30 8 20 21 48 11 146 46 228 80 12
6 47 20 77 32 30 13 97 45 149 71 51 27 98 47 104 45 20 -6 -163 -175 -245
-226 -55 -33 -49 -76 6 -55 9 3 16 13 16 21 0 8 4 12 9 9 4 -3 23 9 42 27 19
19 68 57 109 86 41 30 80 59 85 65 6 7 35 29 65 49 69 47 104 72 161 120 25
20 50 37 54 37 4 0 22 12 40 28 57 48 73 60 97 73 13 6 25 15 28 19 8 10 118
90 125 90 8 0 86 60 106 83 9 9 23 17 32 17 8 0 17 3 19 8 2 4 16 17 32 30 26
20 27 22 7 22 -11 0 -21 -4 -21 -9 0 -5 -22 -17 -50 -26 -29 -10 -50 -23 -50
-31 0 -8 -4 -14 -10 -14 -14 0 -13 2 12 49 12 22 30 43 40 47 10 3 18 9 18 13
0 10 46 68 120 150 22 24 40 48 40 54 0 5 15 26 33 47 37 43 85 113 83 120 0
3 10 21 24 40 14 19 25 37 26 40 2 12 18 45 24 50 7 5 16 22 67 122 57 115 93
194 93 209 0 7 11 36 24 64 32 67 61 169 120 420 24 101 46 341 47 512 1 142
-1 184 -15 318 -3 33 -8 83 -11 110 -3 28 -10 68 -16 90 -6 22 -14 60 -19 85
-12 70 -56 228 -85 305 -14 39 -31 84 -37 100 -6 17 -26 62 -44 102 -19 40
-34 79 -34 86 0 8 -7 20 -15 27 -8 7 -15 18 -15 25 0 7 -11 29 -25 49 -14 20
-25 42 -25 47 0 6 -10 25 -22 42 -12 17 -23 38 -25 46 -1 8 -5 17 -10 20 -19
14 -63 81 -63 95 0 9 -5 16 -10 16 -6 0 -15 12 -20 26 -6 14 -23 37 -40 51
-16 13 -30 29 -30 34 0 13 -91 125 -162 199 -21 21 -38 42 -39 47 0 4 -27 30
-60 58 -32 27 -59 54 -59 59 0 13 54 -4 63 -20 4 -8 14 -14 20 -14 7 0 19 -9
27 -20 8 -11 19 -20 26 -20 6 0 19 -9 29 -20 13 -14 21 -17 31 -9 8 6 14 6 18
0 3 -5 0 -11 -6 -13 -16 -6 34 -52 79 -74 18 -9 31 -19 28 -24 -2 -4 15 -21
38 -39 24 -17 51 -45 61 -61 9 -17 21 -30 27 -30 5 0 22 -19 37 -43 40 -63 83
-117 93 -117 15 0 10 15 -11 38 -11 12 -20 26 -20 32 0 5 -3 10 -8 10 -4 0
-16 17 -27 37 -18 33 -51 73 -115 139 -11 12 -20 26 -20 33 0 6 -7 11 -15 11
-8 0 -19 9 -25 20 -6 11 -17 20 -25 20 -8 0 -15 4 -15 10 0 5 -6 7 -13 4 -8
-3 -22 12 -36 36 -12 22 -28 40 -34 40 -7 0 -29 16 -49 35 -20 19 -39 35 -43
35 -3 0 -20 13 -38 29 -84 76 -123 108 -139 114 -9 3 -60 33 -112 66 -53 33
-171 97 -263 141 -93 45 -175 85 -184 90 -9 5 -58 23 -110 41 -52 17 -101 38
-110 45 -8 8 -25 14 -38 14 -12 0 -68 14 -124 31 -130 39 -245 65 -462 103
-95 16 -363 37 -443 34 -26 -1 -121 -4 -212 -8z m4 -373 c-2 -7 8 -17 25 -24
52 -19 99 -133 117 -286 9 -67 -13 -239 -41 -324 -34 -104 -137 -304 -150
-291 -2 2 3 24 13 48 10 29 16 77 17 135 0 81 -3 95 -27 137 -22 36 -38 50
-72 63 -41 16 -48 16 -93 1 -77 -25 -135 -97 -173 -208 -30 -89 -26 -206 9
-262 13 -20 22 -38 20 -40 -2 -2 -32 -12 -66 -24 -77 -25 -164 -82 -205 -133
-37 -46 -54 -48 -135 -17 -70 26 -167 118 -206 194 -54 106 -76 258 -57 394
11 80 52 222 71 246 5 6 5 14 1 18 -4 4 -1 6 7 4 9 -2 17 10 23 32 5 19 14 40
19 45 7 7 8 3 4 -10 -3 -11 3 -1 14 23 20 41 36 53 43 31 5 -15 38 0 38 18 0
8 -4 11 -10 8 -6 -4 -7 1 -3 11 4 11 8 13 11 6 4 -14 32 -16 32 -2 0 6 6 10
14 10 7 0 19 6 25 14 6 7 29 16 51 20 22 3 40 11 40 16 0 6 7 10 16 10 8 0 22
7 30 15 8 8 34 19 57 25 23 6 56 16 72 24 74 32 136 48 218 53 48 3 87 10 87
14 0 5 37 10 83 12 45 1 83 4 84 5 1 1 0 -4 -3 -11z m976 -143 c252 -98 399
-398 362 -736 -19 -174 -64 -299 -160 -445 -159 -242 -414 -366 -635 -308 -90
23 -154 61 -226 133 -76 77 -139 192 -168 307 -21 87 -24 331 -4 420 38 171
129 342 242 454 80 79 115 111 124 111 3 0 23 11 43 24 113 71 298 89 422 40z
m-2685 -263 c3 -5 1 -12 -5 -16 -5 -3 -10 1 -10 9 0 18 6 21 15 7z m-35 -38
c0 -13 -53 -63 -67 -63 -21 0 -15 13 19 42 33 28 48 34 48 21z m652 -330 c4
-119 9 -148 33 -213 35 -95 66 -142 134 -208 57 -56 108 -87 176 -107 44 -14
44 -14 21 -100 -43 -160 4 -317 136 -447 38 -36 68 -71 68 -77 0 -6 -12 -45
-26 -88 -38 -115 -80 -285 -99 -398 -9 -55 -18 -101 -19 -103 -3 -3 -232 30
-371 53 -49 8 -175 28 -280 45 -357 57 -726 124 -788 143 -21 7 -35 17 -33 24
3 6 -3 14 -12 16 -14 4 -13 5 3 6 16 1 20 8 21 35 1 41 18 125 47 224 18 59
26 74 45 79 28 7 15 10 366 -81 159 -41 294 -72 301 -69 21 7 27 35 12 50 -7
8 -76 29 -153 49 -313 78 -514 135 -514 146 0 4 6 8 13 8 8 0 7 4 -3 10 -13 9
-13 10 0 11 10 0 8 3 -5 9 -15 6 -16 9 -4 9 11 1 20 18 28 55 7 30 20 65 30
78 10 13 19 25 19 28 1 32 30 102 53 128 16 18 27 37 24 43 -4 5 -4 9 -1 9 6
0 68 -35 116 -65 19 -12 122 -77 228 -144 198 -125 234 -139 240 -94 3 18 -9
30 -58 60 -157 97 -439 282 -459 301 -11 11 -12 17 0 38 11 22 11 27 -1 35
-12 8 -12 12 -2 16 6 2 12 10 12 16 0 6 8 20 18 31 10 12 27 41 37 66 11 25
24 50 30 56 39 44 50 61 50 79 0 11 5 19 12 18 18 -4 35 34 27 59 -6 20 -5 21
10 6 8 -9 19 -18 24 -20 7 -3 93 -112 137 -174 11 -16 40 -55 65 -89 25 -33
54 -73 65 -89 11 -16 30 -43 43 -60 12 -17 32 -46 43 -63 22 -34 46 -42 67
-21 17 17 15 32 -9 59 -11 13 -41 53 -65 89 -24 36 -64 92 -88 125 -25 33 -75
105 -112 160 -37 55 -76 112 -86 127 -11 16 -14 29 -8 33 19 12 10 26 -12 20
-16 -4 -19 -4 -9 3 7 5 10 15 7 21 -9 14 7 14 21 0 8 -8 18 0 37 30 15 22 30
41 35 41 6 0 13 9 16 20 3 11 13 20 21 20 9 0 12 5 8 12 -5 8 5 9 37 5 24 -3
35 -3 25 2 -15 6 -5 10 40 19 84 17 103 19 160 21 l52 1 4 -137z m931 27 c19
-54 -38 -169 -77 -154 -24 9 -29 64 -11 113 25 71 70 92 88 41z m-1706 -142
c-34 -51 -65 -94 -69 -96 -5 -2 -8 -8 -8 -13 0 -14 -110 -199 -118 -199 -20 1
-34 19 -28 38 11 32 114 220 150 271 30 43 95 90 123 91 7 0 -16 -42 -50 -92z
m1941 -273 c6 -27 9 -51 8 -53 -2 -1 -21 16 -44 38 -23 21 -62 51 -87 66 l-45
26 34 36 c19 19 52 59 73 88 l38 53 7 -102 c3 -56 11 -124 16 -152z m-2192
138 c-8 -15 -23 -43 -32 -60 -17 -32 -36 -39 -68 -27 -25 10 -19 28 20 60 20
16 48 39 63 51 31 25 39 15 17 -24z m3573 -235 c116 -61 155 -86 286 -182 87
-64 110 -84 102 -92 -7 -7 -164 -45 -662 -158 -102 -23 -390 -89 -461 -106
-56 -13 -69 -34 -40 -63 13 -13 24 -12 83 3 37 9 120 29 183 43 244 56 289 66
405 92 120 27 224 51 431 100 62 15 122 25 135 23 38 -5 223 -232 288 -353 12
-22 26 -47 31 -55 22 -37 39 -83 34 -91 -2 -5 -314 -9 -692 -9 -378 0 -731 -3
-784 -7 -99 -6 -115 -14 -102 -48 6 -13 102 -15 813 -15 l806 0 16 -37 c29
-68 77 -284 94 -425 45 -353 -19 -870 -125 -1017 -17 -23 -28 -47 -24 -53 4
-6 3 -8 -3 -5 -13 8 -38 -23 -47 -58 -5 -21 -10 -25 -16 -16 -6 11 -9 9 -14
-5 -3 -11 -16 -31 -29 -46 -13 -15 -32 -39 -43 -54 -10 -15 -31 -38 -46 -52
-15 -14 -25 -28 -23 -33 3 -4 -4 -10 -14 -14 -11 -3 -23 -15 -26 -26 -4 -10
-11 -19 -16 -19 -5 0 -22 -13 -37 -30 -16 -16 -33 -26 -37 -22 -5 4 -5 -1 -2
-11 4 -10 3 -16 -1 -13 -5 3 -34 -20 -66 -50 -32 -30 -62 -54 -66 -54 -5 0
-19 -12 -32 -27 -26 -30 -50 -47 -86 -63 -14 -6 -20 -15 -16 -22 4 -7 3 -8 -5
-4 -6 4 -25 -4 -43 -19 -17 -14 -48 -35 -69 -46 -22 -11 -39 -24 -39 -29 0 -6
-8 -10 -19 -10 -20 0 -44 -22 -36 -33 3 -4 2 -5 -1 -2 -4 2 -20 -3 -36 -11
-16 -8 -34 -12 -40 -8 -6 4 -8 3 -5 -3 6 -10 -13 -23 -38 -28 -26 -4 -74 -28
-70 -34 2 -4 -6 -7 -18 -7 -12 1 -21 -4 -20 -10 1 -7 -6 -10 -16 -7 -11 3 -21
-2 -24 -11 -4 -9 -17 -16 -31 -16 -14 0 -27 -4 -30 -9 -3 -4 -24 -11 -46 -15
-23 -3 -39 -10 -36 -15 3 -5 -4 -9 -17 -9 -21 0 -103 -25 -140 -44 -10 -5 -22
-6 -27 -3 -6 4 -10 2 -10 -3 0 -6 -10 -8 -22 -4 -12 3 -19 1 -15 -5 4 -5 -6
-8 -25 -5 -23 4 -29 1 -23 -8 5 -9 2 -10 -13 -6 -12 4 -31 2 -42 -4 -11 -6
-40 -12 -63 -12 -23 -1 -46 -5 -52 -8 -5 -4 -17 -8 -25 -8 -8 0 -67 -6 -130
-14 -139 -16 -430 -15 -520 2 -63 11 -123 19 -165 20 -11 0 -45 8 -75 16 -30
8 -67 17 -81 19 -14 2 -52 12 -85 23 -32 10 -86 27 -119 37 -112 34 -301 119
-440 197 -333 189 -630 466 -856 800 -32 48 -59 90 -59 94 0 3 -9 18 -19 32
-57 80 -200 401 -231 517 -76 288 -94 378 -111 572 -6 68 -8 130 -5 140 12 29
36 -7 42 -63 3 -27 9 -80 14 -117 5 -38 6 -75 3 -83 -3 -8 2 -21 12 -28 12 -9
18 -28 19 -68 1 -37 7 -61 19 -72 9 -10 17 -26 17 -37 0 -10 4 -19 10 -19 5 0
9 8 8 18 -5 39 15 199 28 222 10 19 13 21 14 7 0 -9 24 -90 54 -180 201 -604
456 -1034 825 -1390 370 -357 787 -546 1208 -547 373 0 763 162 1113 465 194
168 421 432 573 666 150 231 209 374 237 572 14 97 9 150 -17 195 -36 62 -45
64 -353 62 -384 -1 -780 23 -1350 84 -243 27 -718 91 -726 99 -20 20 102 536
134 569 4 4 34 0 67 -7 78 -19 147 -19 219 0 97 25 127 42 213 119 82 73 142
215 144 336 0 55 0 55 17 30 35 -52 119 -128 179 -163 155 -90 334 -98 507
-24 164 69 321 227 412 414 15 29 29 53 32 53 3 0 57 -28 121 -62z m-1700 -43
c52 -26 81 -71 81 -123 0 -91 -62 -149 -149 -139 -37 4 -52 13 -84 47 -38 40
-39 44 -35 96 5 60 30 96 83 119 40 18 70 18 104 0z m-1871 -7 c6 -6 8 -17 3
-27 -17 -32 -91 -258 -109 -331 -17 -68 -21 -75 -44 -78 l-27 -3 34 128 c29
112 57 198 94 296 11 29 29 35 49 15z m-151 -515 c4 -9 -1 -71 -10 -138 -10
-66 -17 -136 -17 -155 0 -70 -11 -110 -31 -110 -22 0 -24 27 -9 186 13 146 31
234 47 234 8 0 17 -8 20 -17z m103 -694 c0 -6 -4 -7 -10 -4 -5 3 -10 11 -10
16 0 6 5 7 10 4 6 -3 10 -11 10 -16z m3763 -2184 c-3 -9 -8 -14 -10 -11 -3 3
-2 9 2 15 9 16 15 13 8 -4z"/>
<path d="M1865 4970 c3 -5 8 -10 11 -10 2 0 4 5 4 10 0 6 -5 10 -11 10 -5 0
-7 -4 -4 -10z"/>
<path d="M3253 4519 c-120 -59 -219 -277 -184 -407 27 -101 74 -147 149 -146
88 1 162 63 220 183 34 70 36 81 36 175 1 85 -2 107 -20 136 -44 76 -121 99
-201 59z m80 -232 c-2 -71 -66 -155 -102 -133 -38 24 -7 156 43 187 27 16 33
17 45 4 8 -8 14 -32 14 -58z"/>
<path d="M3461 2826 c-14 -17 -5 -44 17 -50 10 -3 139 -28 287 -56 149 -28
302 -57 340 -65 127 -27 279 -56 360 -70 44 -7 139 -25 210 -39 318 -62 396
-75 410 -70 8 4 15 17 15 30 0 27 -29 37 -165 59 -44 8 -101 18 -126 24 -25 6
-82 17 -125 25 -43 8 -128 24 -189 35 -277 54 -592 114 -715 137 -74 14 -168
32 -209 40 -90 17 -96 17 -110 0z"/>
<path d="M830 4835 c0 -9 5 -15 11 -13 6 2 11 8 11 13 0 5 -5 11 -11 13 -6 2
-11 -4 -11 -13z"/>
<path d="M5441 4400 c0 -8 2 -25 5 -38 6 -21 7 -21 20 -5 18 24 18 36 0 30 -9
-4 -17 1 -19 11 -4 13 -5 13 -6 2z"/>
<path d="M5486 4334 c-4 -9 -4 -19 -1 -22 2 -3 7 3 11 12 4 9 4 19 1 22 -2 3
-7 -3 -11 -12z"/>
<path d="M440 4291 c-16 -30 -12 -36 10 -16 21 19 26 35 10 35 -5 0 -14 -9
-20 -19z"/>
<path d="M401 4244 c0 -11 3 -14 6 -6 3 7 2 16 -1 19 -3 4 -6 -2 -5 -13z"/>
<path d="M370 4190 c0 -5 9 -10 20 -10 11 0 20 5 20 10 0 6 -9 10 -20 10 -11
0 -20 -4 -20 -10z"/>
<path d="M5600 4160 c0 -5 5 -10 11 -10 5 0 7 5 4 10 -3 6 -8 10 -11 10 -2 0
-4 -4 -4 -10z"/>
<path d="M288 4033 c7 -3 16 -2 19 1 4 3 -2 6 -13 5 -11 0 -14 -3 -6 -6z"/>
<path d="M5650 4031 c0 -5 5 -13 10 -16 6 -3 10 -2 10 4 0 5 -4 13 -10 16 -5
3 -10 2 -10 -4z"/>
<path d="M5711 3884 c0 -11 3 -14 6 -6 3 7 2 16 -1 19 -3 4 -6 -2 -5 -13z"/>
<path d="M5740 3803 c0 -4 5 -15 10 -23 8 -13 10 -13 10 2 0 9 -4 20 -10 23
-5 3 -10 3 -10 -2z"/>
<path d="M5770 3709 c0 -11 5 -17 10 -14 6 3 10 13 10 21 0 8 -4 14 -10 14 -5
0 -10 -9 -10 -21z"/>
<path d="M5780 3661 c0 -6 5 -13 10 -16 6 -3 10 1 10 9 0 9 -4 16 -10 16 -5 0
-10 -4 -10 -9z"/>
<path d="M5842 3410 c0 -14 2 -19 5 -12 2 6 2 18 0 25 -3 6 -5 1 -5 -13z"/>
<path d="M26 3201 c-3 -5 3 -11 15 -14 16 -4 18 -3 8 9 -13 16 -16 17 -23 5z"/>
<path d="M140 3068 c0 -25 3 -29 10 -18 13 20 13 50 0 50 -5 0 -10 -15 -10
-32z"/>
<path d="M145 2875 c3 -88 5 -167 5 -175 0 -11 2 -12 8 -2 5 7 7 -27 6 -75 -2
-59 -1 -80 5 -63 6 17 9 20 10 8 1 -10 6 -18 12 -18 11 0 10 23 -11 155 -6 39
-17 129 -25 200 l-14 130 4 -160z"/>
<path d="M172 2503 c-1 -17 3 -35 8 -38 6 -3 10 -29 10 -57 0 -27 7 -65 16
-84 9 -19 14 -44 11 -56 -7 -25 13 -118 25 -118 11 0 -2 73 -14 81 -5 3 -4 17
2 33 7 20 7 40 -1 69 -13 49 -21 100 -21 142 0 17 -3 22 -5 13 -7 -29 -21 -21
-26 15 l-4 32 -1 -32z"/>
<path d="M237 2133 c-6 -12 25 -137 36 -144 5 -4 7 -24 4 -45 l-6 -39 11 33
c16 48 -26 229 -45 195z"/>
<path d="M302 1890 c0 -14 2 -19 5 -12 2 6 2 18 0 25 -3 6 -5 1 -5 -13z"/>
<path d="M307 1664 c3 -7 9 -14 14 -14 14 0 10 17 -5 23 -10 4 -13 1 -9 -9z"/>
<path d="M5367 1453 c-66 -88 -108 -173 -106 -220 l1 -28 8 26 c11 38 58 129
84 164 12 17 25 38 29 48 3 9 10 17 16 17 5 0 16 11 25 25 14 21 14 25 2 25
-8 0 -35 -26 -59 -57z"/>
<path d="M405 1470 c3 -5 8 -10 11 -10 2 0 4 5 4 10 0 6 -5 10 -11 10 -5 0 -7
-4 -4 -10z"/>
<path d="M5241 1144 c0 -11 3 -14 6 -6 3 7 2 16 -1 19 -3 4 -6 -2 -5 -13z"/>
<path d="M1030 756 c0 -2 7 -7 16 -10 8 -3 12 -2 9 4 -6 10 -25 14 -25 6z"/>
<path d="M1078 733 c7 -3 16 -2 19 1 4 3 -2 6 -13 5 -11 0 -14 -3 -6 -6z"/>
<path d="M1114 718 c-4 -7 -3 -8 4 -4 7 4 12 3 12 -1 0 -5 10 -9 21 -10 24 -2
23 0 -8 16 -16 8 -24 8 -29 -1z"/>
<path d="M2868 33 c7 -3 16 -2 19 1 4 3 -2 6 -13 5 -11 0 -14 -3 -6 -6z"/>
</g>
</svg>
